# xmcd
#
# Track frame offsets:
#	150
#	14437
#	28630
#	39410
#	51645
#	63196
#	75318
#	88736
#	99023
#	110581
#	123694
#	135515
#	149140
#	162177
#	175184
#	188078
#	201988
#	215103
#	228826
#	241656
#	253881
#	266772
#	279547
#	293100
#
# Disc length: 4075 seconds
# Revision: 0
# Processed by: cddbd v1.5.2PL0 Copyright (c) Steve Scherf et al.
# Submitted via: dBpowerAMP V12.0
#
DISCID=610fe918
DTITLE=Various Artist - Rhythm and Blues Hits 1952-1953
DYEAR=1953
DGENRE=Rhythm and Blues
TTITLE0=Willie Mabon - I Don't Know
TTITLE1=Little Walter - Sad Hours
TTITLE2=Shirley and Lee - I'm Gone
TTITLE3=Big Maybelle - Gabbin' Blues
TTITLE4=Tiny Bradshaw - Soft
TTITLE5=The "5" Royales - Baby Don't Do It
TTITLE6=Ruth Brown - Mama, He Treats Your Daughter Mean
TTITLE7=The Du-Droppers - I Wanna Know
TTITLE8=Fats Domino - Goin' To The River
TTITLE9=Big Mama Thornton - Hound Dog
TTITLE10=Willie Mabon - I'm Mad
TTITLE11=The "5" Royales - Help Me Somebody
TTITLE12=B.B. King - Please Love Me
TTITLE13=Johnny Ace - The Clock
TTITLE14=Varetta Dillard - Mercy, Mr Percy
TTITLE15=Chuck Willis - Don't Deceive Me
TTITLE16=The Clovers - Good Lovin'
TTITLE17=Sonny Til and The Orioles - Crying In The Chapel
TTITLE18=Faye Adams - Shake A Hand
TTITLE19=Big Joe Turner - Honey Hush
TTITLE20=Amos Milburn - One Scotch, One Bourbon, One Beer
TTITLE21=Little Junior Parker - Feelin' Good
TTITLE22=Clyde McPhatter and The Drifters - Money Honey
TTITLE23=Al Savage (with Joe Morris) - I Had A Notion
EXTD=
EXTT0=
EXTT1=
EXTT2=
EXTT3=
EXTT4=
EXTT5=
EXTT6=
EXTT7=
EXTT8=
EXTT9=
EXTT10=
EXTT11=
EXTT12=
EXTT13=
EXTT14=
EXTT15=
EXTT16=
EXTT17=
EXTT18=
EXTT19=
EXTT20=
EXTT21=
EXTT22=
EXTT23=
PLAYORDER=
